<?xml version="1.0" standalone="no"?>
<!DOCTYPE svg PUBLIC "-//W3C//DTD SVG 20010904//EN"
 "http://www.w3.org/TR/2001/REC-SVG-20010904/DTD/svg10.dtd">
<svg version="1.0" xmlns="http://www.w3.org/2000/svg"
 width="1024.000000pt" height="1024.000000pt" viewBox="0 0 1024.000000 1024.000000"
 preserveAspectRatio="xMidYMid meet">
<metadata>
Created by potrace 1.14, written by Peter Selinger 2001-2017
</metadata>
<g transform="translate(0.000000,1024.000000) scale(0.100000,-0.100000)"
fill="#000000" stroke="none">
<path d="M6366 9149 c-224 -31 -391 -116 -573 -292 -143 -139 -239 -289 -306
-483 -127 -364 -102 -798 66 -1175 68 -151 212 -352 300 -419 78 -59 205 -118
314 -147 83 -22 120 -26 243 -26 104 0 166 5 220 18 41 9 85 19 97 22 21 5 20
0 -27 -229 -86 -421 -179 -801 -401 -1647 -71 -271 -128 -496 -126 -498 3 -2
26 9 53 24 l49 29 52 154 c101 301 181 601 338 1275 52 226 99 419 104 430 5
13 7 1 5 -35 -2 -30 -11 -174 -19 -320 -8 -146 -18 -310 -21 -365 -3 -55 -9
-239 -13 -410 l-8 -310 -91 -270 c-50 -148 -115 -364 -146 -480 -30 -115 -84
-322 -120 -460 -36 -137 -88 -326 -116 -420 -146 -487 -270 -1127 -366 -1885
l-6 -54 23 15 c35 23 87 103 104 162 16 53 35 163 80 462 57 369 195 994 290
1309 65 215 95 324 175 636 45 173 95 362 111 420 32 110 118 378 127 394 3 6
25 -66 49 -160 200 -786 606 -2205 717 -2509 30 -82 106 -276 169 -429 l115
-279 18 28 c25 39 30 130 9 200 -9 32 -49 139 -90 239 -144 356 -227 612 -415
1286 -56 201 -137 482 -180 626 -43 143 -106 371 -139 505 -76 308 -113 436
-164 573 l-41 110 12 335 c7 185 21 489 32 676 11 187 20 372 20 412 0 39 4
74 8 77 5 3 25 -91 46 -207 64 -357 135 -712 186 -927 60 -253 64 -274 95
-490 29 -193 60 -348 80 -396 11 -26 20 -33 55 -39 23 -4 43 -5 45 -3 7 7 -44
361 -80 556 -19 103 -52 262 -74 352 -22 91 -79 363 -126 605 -48 242 -101
505 -120 585 -29 129 -94 369 -110 411 -4 12 20 28 107 72 318 159 584 464
708 812 124 351 111 723 -37 1007 -114 220 -286 385 -467 449 -200 70 -657
124 -840 98z m519 -139 c279 -42 380 -86 521 -225 182 -179 274 -421 274 -719
0 -401 -198 -805 -515 -1051 -103 -80 -171 -119 -330 -193 -195 -91 -259 -107
-435 -107 -162 1 -226 14 -345 69 -148 69 -254 177 -353 358 -171 313 -236
751 -158 1066 82 329 276 599 538 745 l64 36 74 -10 c75 -11 151 -6 400 26
130 16 188 17 265 5z"/>
<path d="M3620 8333 c-145 -26 -325 -86 -460 -153 -237 -120 -391 -273 -495
-491 -48 -103 -69 -192 -100 -433 -29 -232 -59 -349 -111 -445 l-35 -63 19
-95 c11 -51 22 -96 25 -99 3 -3 19 2 36 10 16 9 34 16 39 16 5 0 12 -24 15
-52 17 -143 142 -293 358 -430 l57 -36 53 54 c29 30 56 54 60 54 9 0 39 -81
39 -106 0 -11 -20 -78 -44 -149 -24 -72 -79 -231 -121 -355 -42 -124 -103
-326 -135 -450 -33 -124 -96 -344 -140 -490 -92 -300 -142 -497 -164 -650 -22
-150 -29 -240 -19 -240 4 0 28 16 52 34 l45 34 38 178 c47 223 127 521 218
822 38 127 83 285 100 352 17 68 51 186 75 264 42 136 133 389 134 374 1 -4
-8 -101 -19 -215 -36 -385 -51 -626 -60 -988 -18 -711 -96 -1298 -412 -3062
-32 -185 -32 -236 1 -287 l19 -28 20 53 c60 164 82 263 127 569 20 135 51 315
70 400 90 417 155 843 230 1507 19 172 35 321 35 330 0 36 20 -7 78 -173 132
-371 318 -1045 387 -1399 62 -321 136 -659 185 -841 66 -243 129 -434 144
-434 12 0 86 28 94 35 2 2 -17 68 -43 147 -68 211 -145 519 -224 908 -86 418
-105 501 -182 790 -113 422 -208 721 -340 1067 l-72 188 0 255 c0 201 5 313
26 529 24 246 37 335 37 257 0 -47 60 -445 95 -632 72 -380 161 -696 280 -996
6 -16 11 -15 46 10 44 31 45 34 23 93 -121 331 -240 841 -309 1322 -34 235
-85 686 -85 746 l0 30 73 -34 c338 -155 751 -130 1081 67 102 61 238 184 301
273 95 133 151 286 197 544 32 180 32 508 0 658 -26 120 -72 254 -115 338 -47
92 -177 213 -333 311 -178 113 -196 121 -319 149 -169 38 -499 71 -575 58z
m949 -507 c-2 -2 -141 -45 -309 -96 -404 -122 -658 -208 -865 -291 -93 -37
-170 -67 -172 -65 -7 6 232 143 352 201 256 124 558 214 815 244 80 9 186 13
179 7z m81 -160 c0 -9 -104 -70 -197 -116 -219 -108 -538 -195 -943 -255 -58
-9 -116 -18 -130 -21 -49 -11 -12 7 116 55 163 61 349 118 739 225 171 47 330
92 355 100 51 16 60 18 60 12z m221 -264 c24 -244 -2 -571 -61 -790 -84 -306
-359 -556 -710 -645 -129 -33 -358 -30 -491 5 -269 73 -474 213 -650 447 -81
109 -179 290 -220 412 l-23 66 22 30 c28 39 99 87 168 112 79 30 195 41 439
41 690 1 1139 137 1425 431 l75 77 7 -31 c3 -18 12 -87 19 -155z"/>
</g>
</svg>
